<?xml version="1.0" encoding="UTF-8"?>
<svg version="1.1" viewBox="0 0 1836 1168" width="1280" height="1280" xmlns="http://www.w3.org/2000/svg">
<path transform="translate(61,576)" d="m0 0h434l6 2 6 7 1 4v93l-8 4-1 1-43 1h-64l-29 1-2 4-1 35 19 2 82 6 81 6 18 1v-157l5-10h145l7 1 2 2 1 11v163l29 3 101 7 10-1 3-7 1-174 5-5h148l3 1 3 7 1 59v116l3-1 9-16 6-9 5-12 10-17 7-11 10-13 10-11 5-6 8-7 10-9 19-14 18-11 15-8 19-8 22-7 18-4 19-3 4-1h70l4 1 41 3 36 5 42 6 55 9 37 7 92 20 99 23 52 11 12 3 1 1 1 14v13l-1 2-83 1-340 1-35 1-12 3-10 5-5 4-5 9-2 9v12l3 10 6 9 11 7 13 4 9 1 20 1 17 2 26 1 34 3 22 1 22 2 79 5 6 1 46 2 15 2 37 2 16 2 27 1 17 2 37 2 30 4v27l-4 2-21 2-18 2-70 6-15 2-61 5-31 3-26 2-7 1-29 2-30 3-32 3-28 2-49 4-40 4-15 4-8 6-6 8-2 6-1 9 2 12 5 10 7 6 11 5 7 2h231l96-1h134l1 1v26l-5 3-15 4-42 10-26 6-46 11-57 14-79 17-36 7-45 8-48 7-40 5-40 4h-55l-30-4-25-6-24-8-16-7-22-12-14-10-13-10-9-9-6-5-7-8-8-8-10-13-12-19-12-23-10-18-5-6-3-1v169l-1 7-4 4h-2l-2 4-38 1h-99l-7-2-7-8-1-178-30 2-62 5-44 3-6 2-1 164-3 5-4 5-2 1-65 1h-65l-12-1-5-5-4-5-1-155-27 3-71 6-71 5-30 3v138l-4 7-2 3-139 1-11-1-3-4-1-3-1-127-39-1-22-4-16-6-11-6-12-9-10-9-8-10-9-14-8-18-4-15-3-18v-24l5-27 8-20 8-13 12-14 8-8 13-10 15-8 17-6 23-4 33-1v-20l-3-7-39-1-97-1-2-2-5-2-1-1v-95l3-5z" fill="#ffffff"/>
<path transform="translate(1241,591)" d="m0 0h70l4 1 41 3 36 5 42 6 55 9 37 7 92 20 99 23 52 11 12 3 1 1 1 14v13l-1 2-83 1-340 1-35 1-12 3-10 5-5 4-5 9-2 9v12l3 10 6 9 11 7 13 4 9 1 20 1 17 2 26 1 34 3 22 1 22 2 79 5 6 1 46 2 15 2 37 2 16 2 27 1 17 2 37 2 30 4v27l-4 2-21 2-18 2-70 6-15 2-61 5-31 3-26 2-7 1-29 2-30 3-32 3-28 2-49 4-40 4-15 4-8 6-6 8-2 6-1 9 2 12 5 10 7 6 11 5 7 2h231l96-1h134l1 1v26l-5 3-15 4-42 10-26 6-46 11-57 14-79 17-36 7-45 8-48 7-40 5-40 4h-55l-30-4-25-6-24-8-16-7-22-12-14-10-13-10-9-9-6-5-7-8-8-8-10-13-12-19-12-23-10-18-8-10v-147l4-5 10-17 4-6 5-12 10-17 7-11 10-13 10-11 5-6 8-7 10-9 19-14 18-11 15-8 19-8 22-7 18-4 19-3z" fill="#010000"/>
<path transform="translate(61,576)" d="m0 0h434l6 2 6 7 1 4v93l-8 4-1 1-43 1h-64l-29 1-2 4-1 35 19 2 82 6 81 6 17 1 1 1v167l-1 18-6 2-67 6-96 7-30 3v138l-4 7-2 3-139 1-11-1-3-4-1-3-1-127-39-1-22-4-16-6-11-6-12-9-10-9-8-10-9-14-8-18-4-15-3-18v-24l5-27 8-20 8-13 12-14 8-8 13-10 15-8 17-6 23-4 33-1v-20l-3-7-39-1-97-1-2-2-5-2-1-1v-95l3-5z" fill="#ffffff"/>
<path transform="translate(1656,50)" d="m0 0 4 1 4 13 4 21 6 16 7 10 8 5h7l14-7 11-10 7-6 9-11 8-7 3-1-1 10-9 31-2 9v10l4 11 5 4 3 1h16l15-3 27-8 6-2-2 4-24 24-11 15-4 10v7l4 7 8 6 16 7 18 5 19 4-1 4-32 8-13 5-12 7-5 6-2 6 1 8 6 12 9 11 20 20 5 4v2l-10-2-19-6-22-4h-12l-9 6-3 6v18l4 19 7 24-1 3-25-25-15-11-8-4-10-1-6 3-8 9-5 12-5 19-4 16-2 5h-2l-5-15-6-23-8-17-5-6-8-3-9 1-10 5-10 8-3 1-2 4-21 21-3-1 5-19 4-14 3-20-1-10-6-8-8-3h-12l-35 9-10 3h-4l2-4 10-10 17-16 9-13 2-5 1-11-4-7-7-6-16-7-29-8-7-2v-3l12-4 19-5 21-8 9-8 2-4v-9l-7-14-11-13-15-15-6-7v-2l6 1 30 9 11 2h13l8-4 3-3 2-5v-18l-5-21-6-22 2-2 8 7 24 24 11 7 4 2h10l8-4 6-8 6-16 8-32z" fill="#ffffff"/>
<path transform="translate(161,104)" d="m0 0h63l20 7 9 3 14 7 10 9 8 5 13 13 7 11 6 10 6 21 3 6-1 4-5 3-21 2-2 2-26 2-2 2-25 1-2-3-2-12-8-16-9-10-14-7h-24l-17 9-3 6-6 7-4 8-2 13-2 2-1 50 1 36 3 4v9l11 21 7 6 11 4 10 2 1 1h7l2-2h15l10-8 10-10 3-5 1-13h-46l-2-1v-48l2-3h123l10 8 1 6v106l-1 22-4 5h-27l-4-5-2-6-8-8-6-10-5-1-2 4-8 8-10 6-5 4-11 5-7 2-5 2-7 2-1 1-11 1h-28l-11-1-3-2-13-2-3-2-10-3-23-11-7-7-7-4-8-7-8-12-7-8-8-16-8-17-4-13-2-14-2-4v-55l2-4 3-17 4-12 13-26 6-9 8-8 7-10 5-3 10-10 7-4 21-11 11-4z" fill="#ffffff"/>
<path transform="translate(353,108)" d="m0 0h226l1 1v57l-3 1-2 4-1 1h-130v48h83l1 1v56l-1 6-4 1h-79v52h138l1 1 1 23v30l-2 6-5 4h-214l-7-1-3-3-1-3v-284z" fill="#ffffff"/>
<path transform="translate(1261,108)" d="m0 0h97l8 16 14 41 7 17 12 36 7 22 4 12 5 10 19 57 6 15 18 54 1 7-4 4-47 1h-37l-3-2-8-22-6-20-4-12h-92l-8 16-8 24-4 13-2 2-58 1-13-1-4-8 3-10 6-18 5-11 7-21 8-23 6-15 17-51 8-20 12-37 6-13 14-43 7-20zm39 92-4 6-9 28-6 17-5 11v13l2 1h49l1-2v-12l-9-25-6-14-4-13-5-10z" fill="#ffffff"/>
<path transform="translate(706,104)" d="m0 0h70l8 3 11 2 12 4 16 8 10 6 17 17 2 4v5l-9 10-5 4-8 5-4 3-8 4-8 8h-12l-16-14-16-8-7-1h-34l-14 7-5 5-2 5v8l7 8 9 5 3 2h10l4 3 5 1 9 1 4 3h7l7 3 14 2 6 3 9 1 7 3 9 3 15 8 11 8 7 7 9 14 7 14 2 12 2 3 1 5v15l-2 7-1 1-2 14-2 2-2 9-5 10-27 27-22 10-7 3-10 2-1 1-19 1-1 3h-59l-2-2-17-2-5-3-10-1-9-4-3-2-10-3-16-8-23-23-4-8 2-4 14-14 10-6 4-3 7-4 5-4 8-4 7 1 8 7 18 18 12 6 10 1 4 2h29l4-3 12-2 10-5 6-7v-13l-13-13-9-1-5-1-4-2-11-1-6-3-9-1-9-3-9-2-4-2-10-1-3-2-11-3-17-9-28-28-6-10-5-15v-41l8-16 6-11 24-24 15-9 10-4 7-3 13-2z" fill="#ffffff"/>
<path transform="translate(361,728)" d="m0 0 32 3 166 12 1 1v167l-1 18-6 2-67 6-96 7-19 2h-10l-1-3v-214z"/>
<path transform="translate(889,108)" d="m0 0h254l1 1v57l-5 2h-44l-33 1-1 4-1 226-82 1-6-1-1-225-3-5-72-1-8-1v-58z" fill="#ffffff"/>
<path transform="translate(166,717)" d="m0 0h33l1 2v222l-1 17-2 2h-37l-22-4-16-6-11-6-12-9-10-9-8-10-9-14-8-18-4-15-3-18v-24l5-27 8-20 8-13 12-14 8-8 13-10 15-8 17-6z"/>
<path transform="translate(1663,134)" d="m0 0 13 1 12 2 11 5 12 7 3 3 3 1 5 5 11 13 7 10 5 10 5 16 2 9v22l-4 19-6 18-7 10-3 4h-2l-2 4-4 2v2h-2v2l-11 8-9 6-10 4-9 4-17 2h-20l-15-3-9-3-5-3-4-1v-2l-5-2-10-6-5-5-4-2-6-10-5-6-3-7-7-16-4-16-1-11 1-16 2-10 5-15 7-12 10-14 11-9 4-3h2v-2h3v-2l20-9 17-3z" fill="#FFDC20"/>
<path transform="translate(1663,134)" d="m0 0 13 1 12 2 11 5 12 7 3 3 3 1 5 5 11 13 7 10 5 10 5 16 2 9v22l-4 19-6 18-7 10-3 4h-2l-2 4-4 2v2h-2v2l-11 8-9 6-10 4-9 4-17 2h-20l-15-3-9-3-5-3-4-1v-2l-5-2-10-6-5-5-4-2-6-10-5-6-3-7-7-16-4-16-1-11 1-16 2-10 5-15 7-12 10-14 11-9 4-3h2v-2h3v-2l20-9 17-3zm-2 7-15 1-15 5-11 6-9 7-8 9-7 11-5 13-3 13v14l3 13 7 16 6 8 4 4h2v2h2v2l10 6 8 5 11 5 16 4h9l10-2 12-5 9-5 6-4 7-6v-2h2v-2h2l9-12 6-15 2-14v-16l-3-14-5-9-7-9-1-3h-2l-1-4-3-1-2-4-11-7-12-6-11-3z" fill="#FCC532"/>
<path transform="translate(1262,19)" d="m0 0 29 1 7 3 13 2 3 2 8 2 4 2h27l19-9 3-2h4l4 9 2 18 3 4v6l-5 6-9 4-11 5h-11l-2 4h-11l-10-3-14-3-6-2-9-2-6-2h-28l-6 2-8 4-6 5-4-2-3-7-5-17-2-3 1-6 15-14 10-6z" fill="#ffffff"/>
<path transform="translate(1663,134)" d="m0 0 13 1 12 2 11 5 12 7 3 3 3 1 5 5 11 13 7 10 5 10 5 16 2 9v22l-4 19-6 18-7 10-3 4h-2l-2 4-4 2v2h-2v2l-11 8-9 6-10 4-9 4-17 2h-20l-15-3-9-3-5-3-4-1v-2l-5-2-10-6-5-5-4-2-6-10-5-6-3-7-7-16-4-16-1-11 1-16 2-10 5-15 7-12 10-14 11-9 4-3h2v-2h3v-2l20-9 17-3zm-11 4-15 2-16 6-10 6-11 7-6 4v2l-4 2-4 5v2h-2l-2 4v3h-2l-3 6-2 9-2 12 2 7v26l1 15 5 13 11 16 5 1 1 2 4 4 7 1 3 3h6l2 6h2v2l7 4 1-1h26l1 1 9 2 5-1 9-3 10-2 8-2 6-3h7l10-5 6-5v-2l4-1 7-15 4-9 3-12 1-16v-26l-2-9-12-24-4-2-1-4-7-8-3-3-5-3-19-10-5-3-11-3-11-1z" fill="#FAB334"/>
<path transform="translate(725,888)" d="m0 0h133l5 4 1 2v12l-2 2-29 2-62 5-44 3-6 1-1-2v-24z" fill="#020100"/>
<path transform="translate(721,754)" d="m0 0 15 1 86 6 28 2 6 1-2 3-14 1h-102l-10-2-7-6-1-5z" fill="#080400"/>
<path transform="translate(1656,50)" d="m0 0 4 1 4 13 1 5v7l-4-1-4-3h-2l-2 7-6 10-1-2 8-32z" fill="#FCC533"/>
<path transform="translate(1747,74)" d="m0 0h1l-1 10-6 20-2-1-3-11-6 2-4 4-2-1 11-12 7-8z" fill="#ffffff"/>
<path transform="translate(1814,222)" d="m0 0 22 4-1 4-13 3h-4v-7l-4-1z" fill="#ffffff"/>
<path transform="translate(1568,75)" d="m0 0 5 3 11 11v1h-8l-2 2h-3l-4-15z" fill="#ffffff"/>
<path transform="translate(1740,365)" d="m0 0 4 1 4 14-1 3-12-12 4-3z" fill="#ffffff"/>
<path transform="translate(1797,304)" d="m0 0 7 6 8 7v2l-10-2-6-2 3-8h-2z" fill="#FAB730"/>
<path transform="translate(1511,309)" d="m0 0h2l1 4 3 3-10 3h-4l2-4 5-5z" fill="#FDC632"/>
<path transform="translate(1810,137)" d="m0 0h2l-2 4-7 7-2-1-1-6z" fill="#FBB933"/>
<path transform="translate(1735,90)" d="m0 0 5 1 2 2v8l-2 3-4-10v-2l-4-1z" fill="#ffffff"/>
<path transform="translate(1489,224)" d="m0 0 4 2-5 2-1 3-6-1v-3z" fill="#FBBD31"/>
<path transform="translate(1652,75)" d="m0 0 2 2-7 12-1-2 3-8z" fill="#FAB733"/>
<path transform="translate(1660,389)" d="m0 0 3 1-1 8-2 3-1-10z" fill="#FDC632"/>
<path transform="translate(1511,309)" d="m0 0h2l-2 4zm-2 3m-1 1m-2 1h2l-1 5h-4l2-4z" fill="#F9B32A"/>
</svg>
